<svg width="1416" height="548" viewBox="0 0 1416 548" fill="none" xmlns="http://www.w3.org/2000/svg">
<path d="M3873.13 1003.18C3855.75 1015.55 3858.64 1055.54 3915.8 1180.06C3938.24 1228.95 3989.44 1311.26 4078.45 1389.92C4088.76 1357.57 4095.05 1326.55 4094.87 1297.67C4093.72 1105.01 3956.26 1033.05 3873.13 1003.18ZM3141.45 836.397C3118.15 824.206 3096.79 816.546 3086.86 822.456C3079.58 826.804 3096.47 842.854 3096.47 842.854C3096.47 842.854 3215.28 970.655 3262.07 1028.85C3289.29 1062.69 3320.85 1102.87 3355.24 1147.8C3355.52 1143.31 3355.67 1138.85 3355.67 1134.45C3355.32 981.335 3207.41 877.956 3141.45 836.397ZM2191.67 1289.57C2136.71 1155.58 2021.68 812.796 1951.67 831.167C1891.57 846.936 1854.97 1107.51 1939.67 1363.96C1982.3 1493.05 2073.37 1647.31 2126.87 1707.18C2213 1803.52 2307.83 1835.02 2330.87 1795.96C2360.24 1746.19 2226.13 1373.56 2191.67 1289.57ZM1042.07 508.054C884.273 335.905 663.809 270.847 569.273 325.643C467.191 384.835 507.621 638.276 701.27 820.956C819.301 932.284 971.668 1034.82 1072.75 1097.98C1095.75 1111.82 1129.55 1132.16 1170.62 1156.77C1177.43 1160.65 1181.27 1162.8 1181.27 1162.8L1181.12 1163.06C1189.05 1167.8 1197.17 1172.67 1205.56 1177.68C1276.02 917.655 1207.7 688.737 1042.07 508.054ZM4714.17 1746.04C4522.72 1745.03 4356.9 1699.07 4217.9 1630.56C4167.06 1732.02 4115.61 1821.28 4106.97 1887.65C4096.88 1965.13 4085.19 2011.35 4097.37 2103.65C4109.56 2195.95 4162.96 2326.65 4162.18 2336.44C4161.4 2346.23 4150.2 2393.25 4039.78 2394.05C3929.35 2394.84 3834.89 2372.81 3823.78 2343.65C3812.66 2314.49 3791.4 2248.87 3778.17 2180.45C3758.83 2080.32 3557.7 1723.22 3443.5 1536.4C3406.15 1609.31 3374.39 1673.59 3367.77 1724.43C3357.69 1801.91 3345.99 1848.13 3358.17 1940.44C3370.36 2032.73 3423.76 2163.46 3422.98 2173.25C3422.2 2183.04 3411.01 2230.05 3300.58 2230.85C3190.15 2231.64 3095.69 2209.61 3084.58 2180.45C3073.46 2151.29 3061.59 2083.15 3038.97 2017.24C3016.35 1951.32 2748.99 1355.63 2678.97 1201.23C2643.29 1122.56 2612.24 1059.37 2590.32 1016.2C2590.26 1016.31 2590.18 1016.43 2590.18 1016.43C2590.18 1016.43 2588.83 1013.56 2586.5 1008.71C2567.74 971.975 2556.57 951.647 2556.57 951.647C2556.57 951.647 2556.69 951.366 2556.9 950.886C2542.02 923.905 2526.07 898.847 2518.17 898.847C2512.65 898.847 2501.6 970.667 2520.58 1069.24C2560.36 1275.88 2655.93 1598.14 2654.98 1609.24C2654.48 1614.93 2672.74 1671.08 2592.57 1700.44C2514.64 1728.96 2486.89 1681.39 2479.78 1681.24C2472.89 1681.09 2467.77 1664.43 2467.77 1664.43C2467.77 1664.43 2554.59 2026.83 2302.17 2026.83C2144.36 2026.83 1925.69 1854.2 1817.97 1697.72C1749.99 1660.64 1604.52 1581.23 1450.18 1496.43C1390.9 1463.87 1330.41 1430.58 1273.05 1398.98C1269.15 1403.3 1265.26 1407.64 1261.25 1411.92C955.176 1738.47 389.363 1969.44 413.375 2408.45C422.102 2568.05 477.578 2988.29 1500.58 3498.05C2338.58 3915.63 3009.44 3800.72 3125.38 3546.05C3291 3182.21 2766.84 2506 1896.57 2408.45C1564.99 2371.28 1390.4 2499.78 1346.97 2547.65C1301.26 2598.03 1294.44 2600.3 1277.37 2590.85C1249.57 2575.44 1267.19 2530.96 1277.37 2504.45C1303.36 2436.82 1409.98 2316.9 1591.77 2257.25C1751.69 2204.77 2140.99 2175.94 2611.77 2358.05C3139.07 2562.01 3550.81 3129.39 3429.87 3603.65C3306.88 4086 2507.11 4244.57 1750.18 3975.65C1299.69 3815.61 812.016 3564.42 461.379 3236.45C44.4612 2846.48 -22.0232 2507.07 5.37132 2365.25C102.711 1861.34 797.262 1533.18 1075.39 1289.98C1061.66 1282.41 1048.79 1275.3 1037.08 1268.84C897.637 1199.86 368.203 922.796 235.773 630.046C85.5549 297.975 259.688 59.7255 374.973 27.6473C732.156 -71.7433 1098.69 107.026 1295.67 400.835C1492.61 694.577 1468.56 1077.06 1378.17 1251.65C1377.05 1253.82 1375.81 1255.93 1374.66 1258.08C1410.66 1279.39 1447.38 1301.06 1483.77 1322.43C1554.74 1364.1 1624.4 1402.99 1684.86 1435.89C1651.04 1343.2 1626.26 1232.1 1613.37 1071.65C1598.23 883.143 1675.48 639.495 1776.57 543.636C1821.08 501.436 1874.63 500.444 1908.57 500.444C2026.2 500.444 2079.88 598.304 2138.97 714.046C2211.46 855.995 2275.77 1021.24 2275.77 1021.24C2275.77 1021.24 2195.05 574.847 2414.98 574.847C2495.11 574.847 2575.72 678.757 2611.62 731.737C2611.72 731.155 2611.77 730.847 2611.77 730.847C2611.77 730.847 2613.86 734.296 2617.94 741.214C2626.26 753.936 2630.97 762.034 2630.97 762.034C2630.97 762.034 2631.13 762.874 2631.39 764.335C2663.6 820.265 2735.04 947.776 2842.18 1158.05C2980.6 1429.72 3113.37 1770.05 3113.37 1770.05C3113.37 1770.05 3125.72 1686.83 3166.17 1549.24C3189.97 1468.28 3240.53 1378.79 3280.42 1292.97C3248.31 1248.42 3228.57 1222.83 3228.57 1222.83C3228.57 1222.83 3228.76 1222.37 3229.11 1221.51C3203.45 1187.45 3174.68 1150.68 3144.58 1114.84C3035.33 984.725 2905.2 836.136 2887.77 793.245C2867.25 742.714 2872.1 705.546 2911.77 675.643C2940.75 653.804 2992.34 650.417 3046.17 654.046C3144.35 660.643 3213.43 684.995 3247.51 699.827C3300.64 718.616 3362.51 748.167 3420.58 790.847C3527.75 869.636 3592.39 982.347 3586.18 1131.65C3582.74 1213.93 3556.5 1295.47 3523.31 1372.46C3533.04 1386.44 3542.79 1400.55 3552.57 1414.84C3721.52 1661.83 3852.57 1933.24 3852.57 1933.24C3852.57 1933.24 3864.92 1850.04 3905.38 1712.44C3925.85 1642.79 3966.24 1566.83 4002.56 1492.31C3843.7 1363.23 3745.18 1213.24 3710.97 1114.84C3647.72 932.874 3697.26 850.417 3790.18 831.647C3832.27 823.136 3891.71 842.425 3936.43 861.354C3992.07 879.804 4058.93 910.534 4121.38 956.436C4228.55 1035.22 4331.59 1145.55 4325.38 1294.84C4322.54 1362.81 4304.11 1430.27 4279.1 1495.08C4413.76 1551.17 4588.11 1582.36 4810.18 1556.43C5286.58 1500.8 5380.04 1203.34 5362.18 1078.84C5344.31 954.335 5244.38 885.905 5210.97 865.233C5177.57 844.577 5167.37 837.405 5170.18 822.034C5174.24 799.694 5189.69 800.554 5218.17 805.354C5257.39 811.975 5468.34 906.624 5477.37 1136.43C5488.84 1428.19 5209.31 1748.68 4714.17 1746.04Z" transform="translate(286 547.46) scale(0.133333 -0.133333)" fill="#CC6699"/>
<path d="M173.145 358.112L156.226 375.471L43.7256 262.971L156.226 150.471L173.145 168.049L78.2227 262.971L173.145 358.112Z" transform="translate(0 74)" fill="#CC6699"/>
<path d="M198.853 81.6963L30.542 420.734L9.00879 409.309L177.319 70.4902L198.853 81.6963ZM316.714 262.971L204.214 375.471L187.075 358.112L281.997 262.971L187.075 168.049L204.214 150.471L316.714 262.971Z" transform="translate(1099 74)" fill="#CC6699"/>
</svg>
